<svg width="15" height="17" viewBox="0 0 15 17" fill="none" xmlns="http://www.w3.org/2000/svg">
<path d="M13.7316 5.5256C13.6543 5.57073 11.8129 6.52301 11.8129 8.63445C11.8997 11.0424 14.1366 11.8869 14.175 11.8869C14.1366 11.932 13.8373 13.0372 12.9506 14.1958C12.2468 15.1938 11.4658 16.2 10.2797 16.2C9.15148 16.2 8.74648 15.5349 7.44469 15.5349C6.04668 15.5349 5.65111 16.2 4.58075 16.2C3.39468 16.2 2.55575 15.1399 1.81366 14.1513C0.849585 12.8573 0.0301501 10.8268 0.00122142 8.87706C-0.018274 7.84391 0.194288 6.82833 0.733871 5.96571C1.49545 4.76143 2.85509 3.94393 4.33989 3.91697C5.47754 3.88123 6.49004 4.64481 7.18433 4.64481C7.84969 4.64481 9.09362 3.91697 10.5011 3.91697C11.1086 3.91756 12.7286 4.08809 13.7316 5.5256ZM7.08811 3.71069C6.88561 2.7672 7.44469 1.8237 7.9654 1.22186C8.63076 0.494017 9.68163 0 10.5878 0C10.6457 0.943496 10.2791 1.86883 9.62377 2.54275C9.03576 3.27059 8.02326 3.81852 7.08811 3.71069Z" fill="#FDFDFD"/>
</svg>
