<svg width="175" height="337" viewBox="0 0 175 337" fill="none" xmlns="http://www.w3.org/2000/svg">
<path d="M86.643 194.179L85.5224 194.854C84.2648 195.615 83.2498 196.719 82.5961 198.036L82.0222 199.219L81.34 198.091C80.5798 196.834 79.4754 195.821 78.1575 195.172L76.9826 194.59L78.1032 193.916C79.3646 193.155 80.3805 192.048 81.0295 190.726L81.6034 189.551L82.2856 190.679C83.0458 191.936 84.1502 192.949 85.4681 193.598L86.643 194.179Z" fill="#DFDFDF"/>
<path d="M15.3129 4.87278L14.1849 5.55499C12.9278 6.31513 11.9149 7.41956 11.2661 8.7375L10.6846 9.91239L10.0099 8.79179C9.24951 7.53037 8.1421 6.5145 6.81992 5.8655L5.64503 5.28407L6.77309 4.60934C8.03013 3.84919 9.04305 2.74477 9.69191 1.42683L10.2733 0.251938L10.9481 1.37254C11.712 2.62839 12.8152 3.6428 14.1306 4.29883L15.3129 4.87278Z" fill="#DFDFDF"/>
<path d="M141.634 101.879L135.907 102.463C134.525 102.574 133.232 103.185 132.268 104.181L132.208 104.249C131.349 105.246 130.857 106.509 130.816 107.825L130.598 112.312L129.761 107.662C129.56 106.454 128.983 105.34 128.111 104.479L127.819 104.203C126.877 103.404 125.706 102.925 124.474 102.832L118.761 102.325L124.166 101.749C125.534 101.632 126.813 101.025 127.768 100.038L127.932 99.8585C128.712 98.938 129.189 97.7983 129.295 96.5961L129.789 91.8172L130.342 96.3029C130.481 97.6344 131.084 98.8747 132.044 99.8072L132.224 99.9715C133.169 100.781 134.35 101.265 135.591 101.35L141.634 101.879Z" fill="#DFDFDF"/>
<path d="M143.184 7.95037L138.968 8.38313C137.947 8.47089 136.994 8.92687 136.285 9.66596L136.24 9.7109C135.609 10.4461 135.249 11.3758 135.22 12.3446L135.053 15.6799L134.435 12.2486C134.286 11.3601 133.864 10.5401 133.227 9.9025L133.01 9.70094C132.317 9.11313 131.455 8.76094 130.548 8.69528L126.33 8.32046L130.315 7.89553C131.323 7.81075 132.266 7.36287 132.968 6.63518L133.095 6.50039C133.664 5.82 134.013 4.98208 134.093 4.09853L134.462 0.575997L134.863 3.87301C134.965 4.85654 135.411 5.77236 136.123 6.45831C136.162 6.50189 136.205 6.54187 136.251 6.57775C136.94 7.16085 137.797 7.51033 138.697 7.57597L143.184 7.95037Z" fill="#DFDFDF"/>
<path d="M17.3055 291.008L13.0888 291.441C12.0705 291.518 11.1161 291.967 10.4063 292.701L10.3615 292.754C9.72987 293.489 9.36969 294.418 9.34118 295.387L9.17435 298.723L8.55587 295.291C8.41017 294.402 7.98763 293.581 7.34834 292.945L7.13117 292.744C6.43684 292.157 5.57585 291.802 4.66948 291.73L0.451524 291.363L4.43643 290.938C5.44408 290.847 6.38553 290.397 7.08903 289.67L7.21593 289.536C7.78519 288.858 8.13356 288.022 8.21424 287.141L8.58265 283.611L8.98409 286.916C9.08765 287.899 9.53377 288.814 10.2443 289.501L10.3716 289.62C11.0712 290.213 11.9412 290.568 12.8558 290.633L17.3055 291.008Z" fill="#DFDFDF"/>
<path d="M99.5653 329.063L95.3486 329.488C94.3304 329.572 93.3772 330.022 92.6661 330.756L92.6213 330.808C91.9886 331.543 91.6282 332.473 91.6009 333.442L91.4341 336.77L90.8156 333.346C90.6685 332.455 90.2463 331.632 89.6081 330.992L89.3835 330.798C88.6924 330.206 87.8296 329.851 86.9218 329.785L82.7113 329.41L86.6962 328.985C87.7039 328.901 88.6465 328.453 89.3488 327.725L89.4757 327.59C90.0464 326.911 90.3948 326.072 90.474 325.188L90.8349 321.666L91.2438 324.963C91.3582 325.945 91.815 326.855 92.534 327.533L92.6688 327.66C93.37 328.25 94.2391 328.604 95.1529 328.673L99.5653 329.063Z" fill="#DFDFDF"/>
<path d="M173.919 225.135L173.358 225.48C172.729 225.857 172.224 226.408 171.903 227.068L171.612 227.659L171.275 227.099C170.9 226.456 170.346 225.937 169.68 225.606L169.089 225.315L169.649 224.978C170.291 224.603 170.81 224.048 171.142 223.382L171.433 222.799L171.77 223.359C172.149 223.998 172.702 224.516 173.365 224.852L173.919 225.135Z" fill="#DFDFDF"/>
<path d="M116.251 181.354L115.691 181.691C115.051 182.07 114.534 182.624 114.197 183.286L113.914 183.87L113.569 183.31C113.195 182.669 112.644 182.151 111.982 181.817L111.391 181.533L111.951 181.188C112.595 180.819 113.115 180.267 113.444 179.601L113.735 179.01L114.072 179.57C114.447 180.213 115.001 180.732 115.667 181.063L116.251 181.354Z" fill="#DFDFDF"/>
<path d="M166.202 316.86L165.642 317.197C164.999 317.572 164.48 318.126 164.149 318.792L163.858 319.376L163.521 318.816C163.142 318.176 162.588 317.658 161.926 317.322L161.342 317.039L161.902 316.694C162.531 316.318 163.037 315.766 163.358 315.107L163.648 314.516L163.986 315.076C164.363 315.717 164.916 316.235 165.581 316.569L166.202 316.86Z" fill="#DFDFDF"/>
<path d="M74.0985 122.913L73.5382 123.258C72.8953 123.629 72.376 124.181 72.0451 124.845L71.7544 125.436L71.417 124.876C71.0424 124.233 70.4879 123.714 69.822 123.383L69.2308 123.092L69.7911 122.755C70.4337 122.38 70.9527 121.826 71.2842 121.16L71.5749 120.576L71.9123 121.136C72.2913 121.776 72.8446 122.293 73.5073 122.63L74.0985 122.913Z" fill="#DFDFDF"/>
</svg>
